name rise32.9588peak41.5061fall63.4684.mot
datacolumns 19
datarows 24
range 7.10664000000000 7.14497300000000
endheader
time	ground_force1_vx	ground_force1_vy	ground_force1_vz	ground_force1_px	ground_force1_py	ground_force1_pz	ground_force2_vx	ground_force2_vy	ground_force2_vz	ground_force2_px	ground_force2_py	ground_force2_pz	ground_torque1_x	ground_torque1_y	ground_torque1_z	ground_torque2_x	ground_torque2_y	ground_torque2_z	
7.10664000000000	44.25527300000000	753.30022699999995	51.45413200000000	0.30489500000000	0.00000000000000	0.10828900000000	0.00000000000000	0.00000000000000	0.00000000000000	0.00000000000000	0.00000000000000	0.00000000000000	0.00000000000000	22.04624300000000	0.00000000000000	0.00000000000000	0.00000000000000	0.00000000000000	
7.10830600000000	43.73279000000000	756.28363000000002	51.54647300000000	0.30392300000000	0.00000000000000	0.10827600000000	0.00000000000000	0.00000000000000	0.00000000000000	0.00000000000000	0.00000000000000	0.00000000000000	0.00000000000000	22.10170300000000	0.00000000000000	0.00000000000000	0.00000000000000	0.00000000000000	
7.10997400000000	43.21834900000000	759.16487500000005	51.63657700000000	0.30298800000000	0.00000000000000	0.10826200000000	0.00000000000000	0.00000000000000	0.00000000000000	0.00000000000000	0.00000000000000	0.00000000000000	0.00000000000000	22.15624000000000	0.00000000000000	0.00000000000000	0.00000000000000	0.00000000000000	
7.11164200000000	42.71279500000000	761.94286499999998	51.72461500000000	0.30209100000000	0.00000000000000	0.10824700000000	0.00000000000000	0.00000000000000	0.00000000000000	0.00000000000000	0.00000000000000	0.00000000000000	0.00000000000000	22.20987500000000	0.00000000000000	0.00000000000000	0.00000000000000	0.00000000000000	
7.11330800000000	42.21688700000000	764.61650199999997	51.81070000000000	0.30123000000000	0.00000000000000	0.10823000000000	0.00000000000000	0.00000000000000	0.00000000000000	0.00000000000000	0.00000000000000	0.00000000000000	0.00000000000000	22.26259700000000	0.00000000000000	0.00000000000000	0.00000000000000	0.00000000000000	
7.11497600000000	41.73129300000000	767.18469100000004	51.89489400000000	0.30040500000000	0.00000000000000	0.10821300000000	0.00000000000000	0.00000000000000	0.00000000000000	0.00000000000000	0.00000000000000	0.00000000000000	0.00000000000000	22.31436400000000	0.00000000000000	0.00000000000000	0.00000000000000	0.00000000000000	
7.11664300000000	41.25659300000000	769.64635499999997	51.97720400000000	0.29961500000000	0.00000000000000	0.10819500000000	0.00000000000000	0.00000000000000	0.00000000000000	0.00000000000000	0.00000000000000	0.00000000000000	0.00000000000000	22.36511100000000	0.00000000000000	0.00000000000000	0.00000000000000	0.00000000000000	
7.11830800000000	40.79328200000000	772.00044700000001	52.05759400000000	0.29886000000000	0.00000000000000	0.10817500000000	0.00000000000000	0.00000000000000	0.00000000000000	0.00000000000000	0.00000000000000	0.00000000000000	0.00000000000000	22.41474800000000	0.00000000000000	0.00000000000000	0.00000000000000	0.00000000000000	
7.11996900000000	40.34176700000000	774.24596099999997	52.13598100000000	0.29813900000000	0.00000000000000	0.10815500000000	0.00000000000000	0.00000000000000	0.00000000000000	0.00000000000000	0.00000000000000	0.00000000000000	0.00000000000000	22.46316000000000	0.00000000000000	0.00000000000000	0.00000000000000	0.00000000000000	
7.12163800000000	39.90237400000000	776.38194299999998	52.21224200000000	0.29745000000000	0.00000000000000	0.10813500000000	0.00000000000000	0.00000000000000	0.00000000000000	0.00000000000000	0.00000000000000	0.00000000000000	0.00000000000000	22.51021400000000	0.00000000000000	0.00000000000000	0.00000000000000	0.00000000000000	
7.12330700000000	39.47534500000000	778.40750000000003	52.28622000000000	0.29679200000000	0.00000000000000	0.10811300000000	0.00000000000000	0.00000000000000	0.00000000000000	0.00000000000000	0.00000000000000	0.00000000000000	0.00000000000000	22.55576000000000	0.00000000000000	0.00000000000000	0.00000000000000	0.00000000000000	
7.12497500000000	39.06084600000000	780.32181500000002	52.35772300000000	0.29616400000000	0.00000000000000	0.10809100000000	0.00000000000000	0.00000000000000	0.00000000000000	0.00000000000000	0.00000000000000	0.00000000000000	0.00000000000000	22.59963100000000	0.00000000000000	0.00000000000000	0.00000000000000	0.00000000000000	
7.12664200000000	38.65896500000000	782.12415199999998	52.42653200000000	0.29556400000000	0.00000000000000	0.10806900000000	0.00000000000000	0.00000000000000	0.00000000000000	0.00000000000000	0.00000000000000	0.00000000000000	0.00000000000000	22.64164900000000	0.00000000000000	0.00000000000000	0.00000000000000	0.00000000000000	
7.12830700000000	38.26971800000000	783.81387099999995	52.49240500000000	0.29499000000000	0.00000000000000	0.10804600000000	0.00000000000000	0.00000000000000	0.00000000000000	0.00000000000000	0.00000000000000	0.00000000000000	0.00000000000000	22.68162300000000	0.00000000000000	0.00000000000000	0.00000000000000	0.00000000000000	
7.12997400000000	37.89305300000000	785.39043100000004	52.55507900000000	0.29444100000000	0.00000000000000	0.10802300000000	0.00000000000000	0.00000000000000	0.00000000000000	0.00000000000000	0.00000000000000	0.00000000000000	0.00000000000000	22.71935700000000	0.00000000000000	0.00000000000000	0.00000000000000	0.00000000000000	
7.13164000000000	37.52885200000000	786.85340299999996	52.61427700000000	0.29391400000000	0.00000000000000	0.10800000000000	0.00000000000000	0.00000000000000	0.00000000000000	0.00000000000000	0.00000000000000	0.00000000000000	0.00000000000000	22.75464800000000	0.00000000000000	0.00000000000000	0.00000000000000	0.00000000000000	
7.13331100000000	37.17693300000000	788.20247900000004	52.66970900000000	0.29340800000000	0.00000000000000	0.10797700000000	0.00000000000000	0.00000000000000	0.00000000000000	0.00000000000000	0.00000000000000	0.00000000000000	0.00000000000000	22.78728900000000	0.00000000000000	0.00000000000000	0.00000000000000	0.00000000000000	
7.13497400000000	36.83706000000000	789.43747299999995	52.72108100000000	0.29292000000000	0.00000000000000	0.10795400000000	0.00000000000000	0.00000000000000	0.00000000000000	0.00000000000000	0.00000000000000	0.00000000000000	0.00000000000000	22.81707300000000	0.00000000000000	0.00000000000000	0.00000000000000	0.00000000000000	
7.13663700000000	36.50894200000000	790.55833399999995	52.76809200000000	0.29244900000000	0.00000000000000	0.10793100000000	0.00000000000000	0.00000000000000	0.00000000000000	0.00000000000000	0.00000000000000	0.00000000000000	0.00000000000000	22.84379500000000	0.00000000000000	0.00000000000000	0.00000000000000	0.00000000000000	
7.13830700000000	36.19223800000000	791.56514700000002	52.81044500000000	0.29199200000000	0.00000000000000	0.10790800000000	0.00000000000000	0.00000000000000	0.00000000000000	0.00000000000000	0.00000000000000	0.00000000000000	0.00000000000000	22.86725300000000	0.00000000000000	0.00000000000000	0.00000000000000	0.00000000000000	
7.13997700000000	35.88656400000000	792.45814099999996	52.84784700000000	0.29154800000000	0.00000000000000	0.10788600000000	0.00000000000000	0.00000000000000	0.00000000000000	0.00000000000000	0.00000000000000	0.00000000000000	0.00000000000000	22.88725000000000	0.00000000000000	0.00000000000000	0.00000000000000	0.00000000000000	
7.14164400000000	35.59149500000000	793.23769400000003	52.88001100000000	0.29111300000000	0.00000000000000	0.10786400000000	0.00000000000000	0.00000000000000	0.00000000000000	0.00000000000000	0.00000000000000	0.00000000000000	0.00000000000000	22.90359700000000	0.00000000000000	0.00000000000000	0.00000000000000	0.00000000000000	
7.14331900000000	35.30657100000000	793.90433199999995	52.90666300000000	0.29068500000000	0.00000000000000	0.10784300000000	0.00000000000000	0.00000000000000	0.00000000000000	0.00000000000000	0.00000000000000	0.00000000000000	0.00000000000000	22.91611500000000	0.00000000000000	0.00000000000000	0.00000000000000	0.00000000000000	
7.14497300000000	35.03130000000000	794.45873600000004	52.92754200000000	0.29026300000000	0.00000000000000	0.10782200000000	0.00000000000000	0.00000000000000	0.00000000000000	0.00000000000000	0.00000000000000	0.00000000000000	0.00000000000000	22.92463700000000	0.00000000000000	0.00000000000000	0.00000000000000	0.00000000000000	
